<svg xmlns="http://www.w3.org/2000/svg" viewBox="0 0 24 24"><path fill-rule="evenodd" d="M21 12h-2.586l3.293-3.293a.999.999 0 000-1.414l-5-5a.999.999 0 00-1.414 0L12 5.586V3a1 1 0 00-1-1H3a1 1 0 00-1 1v14c0 2.757 2.243 5 5 5h14a1 1 0 001-1v-8a1 1 0 00-1-1zM7 18a1 1 0 110-2 1 1 0 010 2zm11 2h2v-6h-2v6zm-2 0h-5.025a4.96 4.96 0 00.693-1.254L16 14.414V20zM4 6h6V4H4v2zm6 11c0 1.654-1.346 3-3 3s-3-1.346-3-3V8h6v9zm2-8.586l1-1L16.586 11 12 15.586V8.414zm4-4L19.586 8 18 9.586 14.414 6 16 4.414z"/></svg>