<svg xmlns="http://www.w3.org/2000/svg" viewBox="0 0 24 24"><path fill-rule="evenodd" d="M20.878 3.122c-1.445-1.446-3.967-1.446-5.414 0L15 3.586l-1.293-1.293A1.003 1.003 0 0013 2H3a1 1 0 00-1 1v18a1 1 0 001 1h14a1 1 0 001-1v-9.586l2.878-2.878A3.805 3.805 0 0022 5.829a3.803 3.803 0 00-1.122-2.707zm-1.414 4L19 7.586 16.414 5l.464-.464c.691-.691 1.895-.691 2.586 0 .346.346.536.805.536 1.293 0 .488-.19.947-.536 1.293zM16 20H4V4h8.586l1 1-5.293 5.293a.976.976 0 00-.227.367c-.003.009-.012.015-.015.024l-2 6a.999.999 0 001.265 1.265l6-2c.009-.003.015-.012.024-.015a.976.976 0 00.367-.227L16 13.414V20zm-6.563-7.149l1.712 1.712-2.568.856.856-2.568zm6.856-2.558l-.001.001L13 13.586 10.414 11 15 6.414 17.586 9l-1.293 1.293z"/></svg>