<svg xmlns="http://www.w3.org/2000/svg" viewBox="0 0 24 24"><path fill-rule="evenodd" d="M12.458 14a627.928 627.928 0 00-2.267-5.81A681.39 681.39 0 018.053 14h4.405zm3.491 3.684c.3.899.37 1.664.262 2.316h2.197a8.192 8.192 0 01-.303-.553C17.206 17.648 13.314 6.839 12.296 4h-.592l-.486 1.354c.89 2.236 3.881 9.778 4.731 12.33zM3 22a1 1 0 01-.094-1.996c.082-.028.598-.248 1.199-1.451.77-1.539 4.231-11.067 5.953-15.889A1 1 0 0111 2h2a1 1 0 01.942.664c1.722 4.822 5.183 14.35 5.953 15.889.601 1.203 1.117 1.423 1.199 1.451A1 1 0 0121 22h-7a.982.982 0 01-.978-.964c-.02-.537.411-.995.947-1.036.007 0 .157-.012.225-.115.042-.063.235-.437-.143-1.569a74.753 74.753 0 00-.85-2.357c-.067.015-.13.041-.201.041H7.297c-.201.526-.392 1.019-.566 1.459-.089 1.689.921 2.777.98 2.838A1 1 0 017 22H3z"/></svg>